<mxfile host="app.diagrams.net" modified="2024-06-17T06:39:36.994Z" agent="Mozilla/5.0 (Windows NT 10.0; Win64; x64) AppleWebKit/537.36 (KHTML, like Gecko) Chrome/125.0.0.0 Safari/537.36" version="24.5.2" etag="OA_XOa0p2-LbIqm68lHP" type="github">
  <diagram name="Page-1" id="74Z0vDw6rj8F3gElnbpo">
    <mxGraphModel>
      <root>
        <mxCell id="0" />
        <mxCell id="1" parent="0" />
      </root>
    </mxGraphModel>
  </diagram>
</mxfile>
